#!OML:ASF I:\Actors\actors\Patient Classification 2\Patient 1\Session 1\actor1.ASF
:FULLY-SPECIFIED
:DEGREES
667
root -0.525963 18.2648 5.63318 -7.80428 3.04472 -1.24776
lowerback 10.8325 -0.744676 2.94684
upperback 3.84326 -0.610134 2.33054
thorax -2.07081 -0.300485 0.833389
lowerneck -7.54554 -1.97213 -4.2336
upperneck 17.8377 -2.00846 -0.39691
head 6.72297 -1.27654 0.415305
rclavicle -4.32357e-015 -7.15625e-015
rhumerus 26.317 23.4489 -63.1863
rradius 64.9338
rwrist 3.15495
rhand -21.9533 -41.5017
rfingers 7.12502
rthumb 4.45385 -71.4349
lclavicle -4.32357e-015 -7.15625e-015
lhumerus 30.7251 -28.9709 65.0432
lradius 63.863
lwrist 7.20392
lhand -18.5332 -24.0274
lfingers 7.12502
lthumb 7.75572 5.81037
rfemur 10.0072 -3.60841 13.9781
rtibia 15.535
rfoot -21.4472 -6.22505
rtoes -11.276
lfemur -4.44476 4.1927 -15.7487
ltibia 35.4849
lfoot -23.2296 5.88166
ltoes -55.4049
668
root -0.529285 18.2662 5.63624 -7.77242 3.04122 -1.21763
lowerback 10.8014 -0.704577 2.86842
upperback 3.84911 -0.569321 2.24398
thorax -2.04778 -0.279888 0.782011
lowerneck -7.59267 -2.0157 -4.40063
upperneck 17.9039 -2.1202 0.0433651
head 6.76076 -1.30611 0.574399
rclavicle 3.47873e-016 -2.38542e-015
rhumerus 26.6633 23.5323 -62.7241
rradius 64.8267
rwrist 3.55151
rhand -21.9718 -41.1783
rfingers 7.12502
rthumb 4.436 -71.1118
lclavicle 3.47873e-016 -2.38542e-015
lhumerus 30.3298 -28.8335 65.5251
lradius 64.0206
lwrist 7.46513
lhand -18.6584 -23.8834
lfingers 7.12502
lthumb 7.63486 5.95874
rfemur 9.95293 -3.67722 13.9374
rtibia 15.5872
rfoot -21.4185 -6.19431
rtoes -11.5183
lfemur -4.45736 4.20331 -15.7736
ltibia 35.4645
lfoot -23.2137 5.86517
ltoes -55.3567
669
root -0.532985 18.2667 5.63919 -7.73783 3.05524 -1.18064
lowerback 10.7577 -0.670784 2.79049
upperback 3.85076 -0.537328 2.14993
thorax -2.02235 -0.263647 0.723653
lowerneck -7.59905 -2.06552 -4.54743
upperneck 17.9413 -2.23411 0.417092
head 6.78197 -1.34036 0.709216
rclavicle 5.76476e-015 7.95139e-016
rhumerus 26.8904 23.6433 -62.3543
rradius 64.7627
rwrist 4.03915
rhand -21.9959 -40.9676
rfingers 7.12502
rthumb 4.41275 -70.9017
lclavicle 5.76476e-015 7.95139e-016
lhumerus 29.9787 -28.6942 66.0276
lradius 64.0623
lwrist 7.63892
lhand -18.7813 -23.9031
lfingers 7.12502
lthumb 7.51627 5.94338
rfemur 9.89405 -3.72822 13.899
rtibia 15.6604
rfoot -21.4275 -6.1684
rtoes -11.6005
lfemur -4.47466 4.21322 -15.7998
ltibia 35.444
lfoot -23.2179 5.84489
ltoes -55.3937
670
root -0.537505 18.2659 5.64146 -7.71112 3.09526 -1.14212
lowerback 10.7355 -0.649314 2.70516
upperback 3.8511 -0.521306 2.05434
thorax -2.01013 -0.255486 0.670154
lowerneck -7.57922 -2.0991 -4.68335
upperneck 17.9209 -2.3134 0.704843
head 6.77864 -1.36368 0.817898
rclavicle 4.22417e-015 -2.46493e-014
rhumerus 27.081 23.7815 -62.0065
rradius 64.7447
rwrist 4.48172
rhand -21.9853 -40.6231
rfingers 7.12502
rthumb 4.42301 -70.5569
lclavicle 4.22417e-015 -2.46493e-014
lhumerus 29.675 -28.5688 66.4821
lradius 64.0547
lwrist 7.82585
lhand -18.9006 -23.9273
lfingers 7.12502
lthumb 7.40109 5.92321
rfemur 9.85611 -3.73824 13.8764
rtibia 15.7196
rfoot -21.4852 -6.16399
rtoes -11.4396
lfemur -4.49483 4.21514 -15.8256
ltibia 35.4336
lfoot -23.2209 5.82995
ltoes -55.4219
671
root -0.542374 18.265 5.64355 -7.70122 3.12706 -1.16884
lowerback 10.7363 -0.639726 2.6781
upperback 3.85619 -0.513856 1.96939
thorax -2.00586 -0.251414 0.596307
lowerneck -7.58915 -2.12376 -4.73781
upperneck 17.9217 -2.37513 0.905944
head 6.78504 -1.38047 0.886385
rclavicle 2.93207e-015 1.03368e-014
rhumerus 27.4203 23.8988 -61.5962
rradius 64.6677
rwrist 4.68508
rhand -21.9318 -40.1434
rfingers 7.12502
rthumb 4.4746 -70.0762
lclavicle 2.93207e-015 1.03368e-014
lhumerus 29.4293 -28.4509 66.8127
lradius 64.0275
lwrist 8.06457
lhand -19.0768 -23.8586
lfingers 7.12502
lthumb 7.23105 5.99783
rfemur 9.84107 -3.76493 13.9229
rtibia 15.7472
rfoot -21.4925 -6.16717
rtoes -11.4468
lfemur -4.50961 4.21524 -15.776
ltibia 35.4366
lfoot -23.1852 5.83735
ltoes -55.4402
672
root -0.546786 18.2649 5.64675 -7.71283 3.15406 -1.24195
lowerback 10.7335 -0.6294 2.69851
upperback 3.87525 -0.500702 1.8997
thorax -1.98513 -0.244136 0.510797
lowerneck -7.57755 -2.16635 -4.75093
upperneck 17.8913 -2.4659 1.09178
head 6.77782 -1.40953 0.940997
rclavicle -1.35671e-014 1.03368e-014
rhumerus 27.7961 23.9707 -61.1857
rradius 64.578
rwrist 4.74689
rhand -21.9145 -39.7719
rfingers 7.12502
rthumb 4.49133 -69.7042
lclavicle -1.35671e-014 1.03368e-014
lhumerus 29.1483 -28.3032 67.1922
lradius 64.0249
lwrist 8.26543
lhand -19.1651 -23.7179
lfingers 7.12502
lthumb 7.14576 6.14145
rfemur 9.85756 -3.83425 14.0044
rtibia 15.7572
rfoot -21.4347 -6.15057
rtoes -11.5643
lfemur -4.50389 4.17847 -15.6807
ltibia 35.4485
lfoot -23.1597 5.82881
ltoes -55.4193
673
root -0.55143 18.266 5.65054 -7.70987 3.19379 -1.26485
lowerback 10.6908 -0.59335 2.66145
upperback 3.89849 -0.460961 1.83501
thorax -1.93758 -0.223655 0.459076
lowerneck -7.57327 -2.24599 -4.9184
upperneck 17.8766 -2.60922 1.41518
head 6.7829 -1.46287 1.06092
rclavicle 1.18774e-014 3.18055e-015
rhumerus 27.9783 24.0084 -60.8107
rradius 64.6015
rwrist 4.89825
rhand -21.8771 -39.582
rfingers 7.12502
rthumb 4.52745 -69.5136
lclavicle 1.18774e-014 3.18055e-015
lhumerus 28.8345 -28.148 67.7278
lradius 64.0564
lwrist 8.44266
lhand -19.1787 -23.5886
lfingers 7.12502
lthumb 7.13269 6.27125
rfemur 9.8861 -3.86958 14.0415
rtibia 15.7348
rfoot -21.409 -6.16185
rtoes -11.5745
lfemur -4.51296 4.11892 -15.6481
ltibia 35.4679
lfoot -23.1769 5.85629
ltoes -55.3878
674
root -0.556066 18.2672 5.65435 -7.66955 3.24866 -1.24438
lowerback 10.6047 -0.567129 2.58286
upperback 3.91 -0.44026 1.75233
thorax -1.87855 -0.212769 0.41409
lowerneck -7.5977 -2.31973 -5.16613
upperneck 17.91 -2.74356 1.80514
head 6.81102 -1.51205 1.216
rclavicle 1.71452e-014 -1.55052e-014
rhumerus 28.1885 24.0675 -60.4486
rradius 64.55
rwrist 5.47811
rhand -21.697 -39.6452
rfingers 7.12502
rthumb 4.70139 -69.573
lclavicle 1.71452e-014 -1.55052e-014
lhumerus 28.5224 -27.9678 68.2587
lradius 64.0869
lwrist 8.70384
lhand -19.1968 -23.5445
lfingers 7.12502
lthumb 7.11518 6.31585
rfemur 9.8935 -3.90627 14.0312
rtibia 15.6849
rfoot -21.4302 -6.18792
rtoes -11.5788
lfemur -4.56075 4.05857 -15.6706
ltibia 35.4892
lfoot -23.1947 5.91668
ltoes -55.4422
675
root -0.560777 18.2676 5.65855 -7.62442 3.28613 -1.28252
lowerback 10.5256 -0.555049 2.55314
upperback 3.91443 -0.432576 1.67475
thorax -1.83104 -0.208281 0.348704
lowerneck -7.6077 -2.36691 -5.31608
upperneck 17.926 -2.84193 2.11352
head 6.82768 -1.54407 1.33188
rclavicle -2.48481e-015 8.74653e-015
rhumerus 28.5033 24.1515 -60.1372
rradius 64.367
rwrist 6.19589
rhand -21.5668 -39.7148
rfingers 7.12502
rthumb 4.82704 -69.6398
lclavicle -2.48481e-015 8.74653e-015
lhumerus 28.2078 -27.8003 68.6788
lradius 64.152
lwrist 9.05632
lhand -19.2847 -23.5386
lfingers 7.12502
lthumb 7.03035 6.32469
rfemur 9.88291 -3.96457 14.0769
rtibia 15.6472
rfoot -21.437 -6.16961
rtoes -11.5278
lfemur -4.6107 4.02407 -15.6223
ltibia 35.5063
lfoot -23.2184 5.87943
ltoes -55.5028
676
root -0.565313 18.2681 5.66204 -7.59219 3.29361 -1.35136
lowerback 10.8534 -0.503559 2.76216
upperback 3.6602 -0.327821 1.48884
thorax -2.27515 -0.159851 0.0298671
lowerneck -7.42081 -2.4521 -5.29899
upperneck 18.0966 -3.01901 2.36321
head 6.85923 -1.61005 1.39684
rclavicle -6.11263e-015 0
rhumerus 28.1989 24.2159 -60.1905
rradius 64.3463
rwrist 6.42545
rhand -21.569 -39.5716
rfingers 7.12502
rthumb 4.82499 -69.4967
lclavicle -6.11263e-015 0
lhumerus 27.5895 -27.9826 69.1489
lradius 64.2743
lwrist 9.34849
lhand -19.3867 -23.4835
lfingers 7.12502
lthumb 6.93186 6.38298
rfemur 9.86473 -3.9748 14.1702
rtibia 15.6264
rfoot -21.3898 -6.18791
rtoes -11.6744
lfemur -4.64808 4.01352 -15.5323
ltibia 35.5194
lfoot -23.248 5.80722
ltoes -55.4694
677
root -0.569798 18.2689 5.66494 -7.5708 3.31516 -1.37466
lowerback 10.8216 -0.481046 2.70444
upperback 3.67345 -0.307737 1.42092
thorax -2.24373 -0.149359 -0.0109474
lowerneck -7.4336 -2.48338 -5.29353
upperneck 18.1108 -3.0886 2.50705
head 6.87053 -1.63131 1.43641
rclavicle 1.03865e-014 -9.14409e-015
rhumerus 28.4013 24.3004 -59.9358
rradius 64.3615
rwrist 6.42169
rhand -21.5882 -39.4642
rfingers 7.12502
rthumb 4.80636 -69.3897
lclavicle 1.03865e-014 -9.14409e-015
lhumerus 27.2579 -27.7556 69.6627
lradius 64.3472
lwrist 9.52107
lhand -19.4273 -23.3515
lfingers 7.12502
lthumb 6.89263 6.51625
rfemur 9.85624 -3.97394 14.2196
rtibia 15.6129
rfoot -21.3623 -6.25071
rtoes -12.0625
lfemur -4.67768 3.98034 -15.5031
ltibia 35.5259
lfoot -23.2242 5.85391
ltoes -55.5106
